HIERARCHY
ROOT Hips
{
	OFFSET 0.00000 0.00000 0.00000
	CHANNELS 6 Xposition Yposition Zposition Zrotation Yrotation Xrotation 
	JOINT LHipJoint
	{
		OFFSET 0 0 0
		CHANNELS 3 Zrotation Yrotation Xrotation
		JOINT LeftHip
		{
			OFFSET 1.48831 -1.59570 0.95625
			CHANNELS 3 Zrotation Yrotation Xrotation
			JOINT LeftKnee
			{
				OFFSET 2.20856 -6.06797 0.00000
				CHANNELS 3 Zrotation Yrotation Xrotation
				JOINT LeftAnkle
				{
					OFFSET 2.62924 -7.22379 0.00000
					CHANNELS 3 Zrotation Yrotation Xrotation
					JOINT LeftToe
					{
						OFFSET 0.16802 -0.46163 2.41673
						CHANNELS 3 Zrotation Yrotation Xrotation
						End Site
						{
							OFFSET 0.00000 -0.00000 1.23760
						}
					}
				}
			}
		}
	}
	JOINT RHipJoint
	{
		OFFSET 0 0 0
		CHANNELS 3 Zrotation Yrotation Xrotation
		JOINT RightHip
		{
			OFFSET -1.56796 -1.59570 0.95625
			CHANNELS 3 Zrotation Yrotation Xrotation
			JOINT RightKnee
			{
				OFFSET -2.29239 -6.29829 0.00000
				CHANNELS 3 Zrotation Yrotation Xrotation
				JOINT RightAnkle
				{
					OFFSET -2.66963 -7.33475 0.00000
					CHANNELS 3 Zrotation Yrotation Xrotation
					JOINT RightToe
					{
						OFFSET -0.18185 -0.49964 2.34359
						CHANNELS 3 Zrotation Yrotation Xrotation
						End Site
						{
							OFFSET -0.00000 -0.00000 1.20477
						}
					}
				}
			}
		}
	}
	JOINT lowerback
	{
		OFFSET 0 0 0
		CHANNELS 3 Zrotation Yrotation Xrotation
		JOINT Chest
		{
			OFFSET 0.03505 2.15832 -0.34324
			CHANNELS 3 Zrotation Yrotation Xrotation
			JOINT Chest2
			{
				OFFSET -0.01089 2.17963 0.04689
				CHANNELS 3 Zrotation Yrotation Xrotation
				JOINT lowerneck
				{
					OFFSET 0 0 0
					CHANNELS 3 Zrotation Yrotation Xrotation
					JOINT Neck
					{
						OFFSET 0.04686 1.69404 0.22159
						CHANNELS 3 Zrotation Yrotation Xrotation
						JOINT Head
						{
							OFFSET 0.00265 1.69305 -0.01513
							CHANNELS 3 Zrotation Yrotation Xrotation
							End Site
							{
								OFFSET -0.00415 1.80215 -0.03034
							}
						}
					}
				}
				JOINT LeftCollar
				{
					OFFSET 0 0 0
					CHANNELS 3 Zrotation Yrotation Xrotation
					JOINT LeftShoulder
					{
						OFFSET 3.67184 1.11724 -0.19002
CHANNELS 3 Zrotation Xrotation Yrotation
						JOINT LeftElbow
						{
OFFSET 0 -5.177140 -0.000000
CHANNELS 3 Zrotation Xrotation Yrotation
							JOINT LeftWrist
							{
OFFSET 0 -3.436790 -0.000000
CHANNELS 3 Zrotation Xrotation Yrotation
								JOINT lhand
								{
									OFFSET 0 0 0
CHANNELS 3 Zrotation Xrotation Yrotation
									JOINT LFingers
									{
OFFSET 0 -0.573120 -0.000000
CHANNELS 3 Zrotation Xrotation Yrotation
										End Site
										{
OFFSET 0 -0.462060 -0.000000
										}
									}
								}
								JOINT LThumb
								{
OFFSET 0 0.000000 0.000000
CHANNELS 3 Zrotation Xrotation Yrotation
									End Site
									{
OFFSET 0 -0.469120 0.469120
									}
								}
							}
						}
					}
				}
				JOINT RightCollar
				{
					OFFSET 0 0 0
					CHANNELS 3 Zrotation Yrotation Xrotation
					JOINT RightShoulder
					{
						OFFSET -3.59596 0.95831 -0.26050
CHANNELS 3 Zrotation Xrotation Yrotation
						JOINT RightElbow
						{
OFFSET 0 -5.239080 -0.000000
CHANNELS 3 Zrotation Xrotation Yrotation
							JOINT RightWrist
							{
OFFSET 0 -3.464850 -0.000000
CHANNELS 3 Zrotation Xrotation Yrotation
								JOINT rhand
								{
									OFFSET 0 0 0
CHANNELS 3 Zrotation Xrotation Yrotation
									JOINT RFingers
									{
OFFSET 0 -0.608750 -0.000000
CHANNELS 3 Zrotation Xrotation Yrotation
										End Site
										{
OFFSET 0 -0.490790 -0.000000
										}
									}
								}
								JOINT RThumb
								{
OFFSET 0 0.000000 0.000000
CHANNELS 3 Zrotation Xrotation Yrotation
									End Site
									{
OFFSET 0 -0.498290 0.498290
									}
								}
							}
						}
					}
				}
			}
		}
	}
}
MOTION
Frames: 4
Frame Time: 0.008333333333333333
48.977700 15.742900 -22.740400 -162.659000 -65.622200 164.627000 0.000000 0.000000 0.000000 -16.642300 11.548800 -15.877200 2.398100 9.650200 27.851200 -0.015500 -17.595000 -12.222400 0.267500 3.327100 9.190700 0.000000 0.000000 0.000000 17.885700 19.064800 -13.033600 -4.546900 -12.854600 38.826500 -0.677500 10.392200 -15.354300 -1.086100 6.623400 -18.604400 2.785100 0.912200 0.967000 -0.997000 1.083700 4.891700 -2.562000 0.623000 4.583200 8.780200 8.579400 -3.452900 -10.036500 11.878800 11.303800 -3.800300 5.614600 5.085100 -0.000000 0.000000 0.000000 7.342900 -13.325200 -30.858600 20.353500 -31.065900 5.712600 18.804900 -20.134400 -8.621700 0.000000 0.000000 0.000000 -7.125000 0.000000 0.000000 -7.006900 38.989200 -1.043700 -0.000000 0.000000 0.000000 1.546500 -0.412200 14.416800 -14.367500 -23.257700 -2.971700 -18.543700 5.134300 3.878600 0.000000 0.000000 0.000000 7.125000 0.000000 -0.000000 6.638100 34.013300 1.799300
48.954282 15.748447 -22.881556 -161.678720 -68.028772 163.439943 0.000000 0.000000 0.000000 -16.377290 11.470185 -15.405755 2.331077 9.523994 27.448617 -0.304612 -19.459816 -10.928959 0.275702 3.377264 9.330904 0.000000 0.000000 0.000000 17.564139 19.479647 -12.839998 -4.552153 -12.861032 38.850401 -0.413975 10.724534 -12.792086 -0.698843 5.339494 -14.880349 2.527349 0.897010 1.035852 -1.078953 1.076328 4.859739 -2.503460 0.610794 4.505251 8.464792 8.360977 -3.470466 -9.735040 11.566041 11.133867 -3.685345 5.471332 4.968699 0.000000 0.000000 0.000000 7.358223 -13.576878 -29.500552 18.137656 -28.331333 4.615257 18.646696 -19.067112 -9.054726 0.000000 0.000000 0.000000 -7.125000 0.000000 0.000000 -7.208863 39.429048 -0.995617 0.000000 0.000000 0.000000 1.442607 -0.712888 15.242065 -14.623721 -23.619241 -3.073613 -18.911833 4.549372 3.620992 0.000000 0.000000 0.000000 7.125000 0.000000 0.000000 6.312596 33.756801 1.749631
48.944741 15.752370 -23.028091 -160.612987 -70.381377 162.385826 0.000000 0.000000 0.000000 -16.155540 10.979291 -15.267832 2.299967 9.464773 27.260138 -0.584138 -21.004667 -9.652691 0.299186 3.516968 9.721531 0.000000 0.000000 0.000000 17.380354 19.736075 -12.873433 -4.629784 -12.954285 39.197743 -0.220800 10.478538 -10.449590 -0.405468 4.086837 -11.321240 2.242481 0.933306 0.923207 -1.187211 1.139657 4.751849 -2.452433 0.635029 4.455197 8.315366 7.959053 -3.641605 -9.543351 11.003518 11.051430 -3.642665 5.201097 4.899323 0.000000 0.000000 0.000000 7.473245 -13.736801 -27.837255 15.887175 -25.366192 3.598216 18.491941 -17.620046 -9.068075 0.000000 0.000000 0.000000 -7.125000 0.000000 0.000000 -7.344230 39.430772 -1.014323 0.000000 0.000000 0.000000 1.363893 -1.070328 15.971749 -14.945645 -24.070347 -3.203804 -19.016902 3.968138 3.471734 0.000000 0.000000 0.000000 7.125000 0.000000 0.000000 6.213094 33.603749 1.744872
48.924948 15.752446 -23.175432 -159.443654 -72.590130 161.123187 0.000000 0.000000 0.000000 -15.918912 10.376871 -14.933097 2.273348 9.413721 27.098126 -0.861488 -22.369257 -8.367055 0.349162 3.796704 10.505540 0.000000 0.000000 0.000000 17.441124 19.630821 -12.552155 -4.773747 -13.124299 39.835667 -0.197237 9.474044 -9.676928 -0.319026 3.630715 -10.039968 2.020178 0.969062 0.830109 -1.316423 1.201063 4.655183 -2.458457 0.660947 4.407852 8.652227 7.515205 -4.257107 -9.685341 10.384705 11.385623 -3.763682 4.885026 5.073174 0.000000 0.000000 0.000000 7.687473 -13.676543 -25.576572 13.734061 -22.352540 2.726607 18.693037 -15.665964 -8.698961 0.000000 0.000000 0.000000 -7.125000 0.000000 0.000000 -7.114519 39.061370 -1.047153 0.000000 0.000000 0.000000 1.293390 -1.371410 16.794448 -15.340952 -24.618799 -3.366694 -19.061721 3.248008 3.164173 0.000000 0.000000 0.000000 7.125000 0.000000 0.000000 6.148516 33.282015 1.774713
